<svg id="Layer_1" data-name="Layer 1" xmlns="http://www.w3.org/2000/svg" viewBox="0 0 224.31 102.41"><defs><style>.cls-1{fill:#fff;}</style></defs><path class="cls-1" d="M200.18,62.47c-1.52,1.85-3,3.77-4.58,5.53A17.52,17.52,0,0,1,192,71.1c-3.19,2-5.75.41-5.74-3.31V66.64c-1.18.8-2.23,1.59-3.35,2.25-3.31,2-6.78,3.39-10.73,3.28a6.71,6.71,0,0,1-6.8-6.24c-.08-.63-.12-1.26-.18-1.89a38.76,38.76,0,0,1-4.14.94,16.73,16.73,0,0,1-4,0c-2.23-.29-3.9-1.36-4.16-4.07-1.1,1.29-2.12,2.4-3,3.6-3.09,4-6.15,8.07-9.23,12.1a6.06,6.06,0,0,1-.79.89c-1.16,1.06-2.58,1-3.14-.49a14.42,14.42,0,0,1-.94-4.64,56.63,56.63,0,0,1,.24-6.11l-.81.6c-4,3-8.28,5.29-13.45,5.28-3.63,0-5.77-1.69-6.78-5.23-.07-.23-.15-.45-.3-.89-.51.83-.94,1.52-1.35,2.22-3.36,5.74-7,11.27-11.89,15.88a45.51,45.51,0,0,1-5.5,4.4,8.7,8.7,0,0,1-3.29,1.34,4.3,4.3,0,0,1-5.21-2.81,14.23,14.23,0,0,1-.91-4.65c-.12-5.45,1.15-10.7,2.57-15.92,2.64-9.73,5.67-19.32,10.15-28.37a64.48,64.48,0,0,1,5-8.17,8.84,8.84,0,0,1,3.28-2.66c2.25-1.07,4.27.25,4.09,2.73a20.94,20.94,0,0,1-1.29,5.79c-2.18,5.77-5.59,10.85-9.07,15.88-1.3,1.88-2.57,3.78-4,5.52a25.42,25.42,0,0,0-4.61,8.72c-1.62,5-3.2,10-3.57,15.23a18.28,18.28,0,0,0,.36,5.11c.54,2.44,2.51,3.27,4.8,2.2a16.61,16.61,0,0,0,6-4.9c3.19-4.09,6.29-8.26,9.26-12.51,1.9-2.71,3.5-5.63,5.21-8.47.3-.51.37-1.15.67-1.65a5.18,5.18,0,0,1,1.31-1.63,2.14,2.14,0,0,1,2.67-.18c.9.67.46,1.55.3,2.42a29.69,29.69,0,0,0-.74,5.06,3.49,3.49,0,0,0,4.22,3.72,15.26,15.26,0,0,0,3.82-.94A28.32,28.32,0,0,0,136.72,63a9.67,9.67,0,0,0,1.36-1.94c.7-1.13,1.35-2.37,2.78-2.62a2.57,2.57,0,0,1,2,.39,2.09,2.09,0,0,1,.28,1.83c-1,2.83-2.13,5.6-3.14,8.41a16.13,16.13,0,0,0-1.34,6.64c.47-.56.76-.88,1-1.22,4-5,8-10.12,12-15.12a17.18,17.18,0,0,1,3.2-3,4.55,4.55,0,0,1,2.54-.65,1.67,1.67,0,0,1,1.23,1.07c.09.43-.36,1.06-.72,1.48s-.78.38-1.14.62a8.36,8.36,0,0,0-1.63,1.2c-1,1.06-.79,2.26.61,2.56a33.74,33.74,0,0,0,5.67.57,11,11,0,0,0,2.35-.4,2.6,2.6,0,0,0,2.35-2,2.92,2.92,0,0,1,1.57-1.63,3.18,3.18,0,0,1,2.33.07c.84.42.47,1.35.31,2.16a28.8,28.8,0,0,0-.79,5.06c0,2.78,1.76,4.29,4.53,3.85a20,20,0,0,0,4.35-1.25,27.92,27.92,0,0,0,8.45-5.58,7,7,0,0,0,1.23-1.59c3.25-5.42,9.51-8.33,15.19-7A6.12,6.12,0,0,1,207.74,58c.32.62.67,1.33-.1,1.81s-1.44,0-2-.61a2.86,2.86,0,0,1-.24-.42c-1.52-2.62-3.93-3.46-6.61-2.09a14.25,14.25,0,0,0-7.6,10.06,6,6,0,0,0,0,1.47l.36.18a12.56,12.56,0,0,0,1.7-1.18c2.35-2.28,4.63-4.64,7-6.9a6.18,6.18,0,0,1,2.41-1.44c1.41-.41,2.28.63,1.93,2.07-.32,1.28-.64,2.56-.89,3.85a7.19,7.19,0,0,0-.08,1.91c.21,2.52,1.86,4,4.37,3.61a18.8,18.8,0,0,0,4.58-1.28,27.61,27.61,0,0,0,9.71-6.87c.16-.18.3-.45.5-.51a13.42,13.42,0,0,1,1.53-.22,3.86,3.86,0,0,1-.21,1.4c-4.65,5.34-10.17,9.18-17.53,9.29-5.61.09-8.2-3.74-6.37-9,.06-.18.12-.37.17-.55Zm-91.7-29.21-.64-.26c-5.57,6-8.18,13.52-10.92,21A32.82,32.82,0,0,0,100,49.6q3.9-6.8,7.64-13.68A13.9,13.9,0,0,0,108.48,33.26Z" transform="translate(0 -0.04)"/><path class="cls-1" d="M84.31,43.91A81.34,81.34,0,0,1,77,74.36C73.64,82,69.34,89.1,63.28,95c-3.57,3.48-7.62,6.29-12.61,7.2a20.55,20.55,0,0,1-6.64,0c-3.47-.54-5.8-2.85-7.42-5.88a20.9,20.9,0,0,1-2.38-9.09c-.39-8.8,1.13-17.38,3.48-25.79,1.84-6.6,4.18-13.07,6.34-19.58a6.6,6.6,0,0,1,1.18-2.2c1.08-1.31,2.56-1,3.15.58a6,6,0,0,1-.32,4.2C45.55,51.71,43,59,40.62,66.3a82.55,82.55,0,0,0-3.87,18.85,22,22,0,0,0,.87,8.54,9.68,9.68,0,0,0,9.07,7c5,.36,9.17-1.69,12.87-4.85A43.47,43.47,0,0,0,70,81.71a85.63,85.63,0,0,0,9.45-40.08,32,32,0,0,0-1.21-7.9c-2.49-9-9.79-13-18.77-10.63C51.14,25.34,45,30.5,40.66,37.85a48.92,48.92,0,0,0-6,18.2A5.21,5.21,0,0,1,34,58.26a2.45,2.45,0,0,1-1.84,1c-.51,0-1.11-.82-1.38-1.41a3.18,3.18,0,0,1-.1-1.88c3.19-13.89,10.1-25.2,22.73-32.44A25.91,25.91,0,0,1,65.88,20c8.29-.17,14.19,4,16.79,11.93A38.45,38.45,0,0,1,84.31,43.91Z" transform="translate(0 -0.04)"/><path class="cls-1" d="M.3,25.6A4.61,4.61,0,0,1,0,24.33c.48-7,1.71-13.72,5-20A19.34,19.34,0,0,1,7.64.8,1.87,1.87,0,0,1,10,.26a1.7,1.7,0,0,1,.52,2.26A44.68,44.68,0,0,1,7.93,8.39a62.65,62.65,0,0,1-4.58,6.72c-1.45,1.88-1.48,4.13-2,6.26a15.9,15.9,0,0,1,1.54-2.8,9.36,9.36,0,0,1,2.94-2.66c1.93-.91,3.33.1,4.3,2.68,1.66-.51,3.33-1,5-1.56a1.75,1.75,0,0,0,.68-.72,20.13,20.13,0,0,1,1.26-2.15,1.29,1.29,0,0,1,1.2-.3,1.34,1.34,0,0,1,.46,1.19c-.24.83-.74,1.58-1,2.4-.46,1.2-.84,2.43-1.25,3.64l.41.27a6.33,6.33,0,0,0,1.18-.81c1.25-1.4,2.44-2.85,3.67-4.26a6.19,6.19,0,0,1,1-.77,3.49,3.49,0,0,1,.34,1.14c-.11,1.74-.3,3.48-.48,5.4,3-2.29,5.92-4.33,9.44-5.29l.27.34c-.26.22-.49.54-.79.64a21.81,21.81,0,0,0-8.31,5.08A4.65,4.65,0,0,0,22,25a38.94,38.94,0,0,1-3.65,10.48,30.57,30.57,0,0,1-2.72,3.77,3,3,0,0,1-1.27.84c-1.06.43-2-.1-1.83-1.24a10.23,10.23,0,0,1,1-3.87c1.87-3.25,4-6.34,5.95-9.54a15.34,15.34,0,0,0,1.63-3.39A20,20,0,0,0,22,17.15c-.35.53-.68,1.07-1,1.57-.73,1-1.44,2-2.24,3a2.16,2.16,0,0,1-2.48.75c-1-.36-1.11-1.32-1.16-2.19a20.27,20.27,0,0,1,.23-2.46c-1.7.64-3.28,1.21-4.82,1.86-.19.08-.26.52-.31.81a14.44,14.44,0,0,1-2.82,6.79A12,12,0,0,1,4.74,29.5,2.1,2.1,0,0,1,1.6,26.9a6,6,0,0,1,1.18-2.32c1.41-1.5,3-2.89,4.49-4.26a1.86,1.86,0,0,0,.19-2.61,1.35,1.35,0,0,0-1.81-.62,1.24,1.24,0,0,0-.35.25,11.69,11.69,0,0,0-2.22,2.92c-.73,1.41-1.21,2.95-1.8,4.43-.14.34-.29.68-.43,1Zm7-4.18A11.71,11.71,0,0,0,3.07,26c-.23.46,0,1.14,0,1.72.51-.21,1.17-.29,1.51-.66A13,13,0,0,0,7.3,21.42ZM3.84,12.51C5.91,9.51,8,6.61,9,3.08c-2.7,2.6-3.93,6-5.12,9.43Zm15.33,15c-2.08,3-4.22,6-5.21,9.6,2.76-2.59,4-6.07,5.21-9.55Z" transform="translate(0 -0.04)"/><path class="cls-1" d="M121.78,53.06a17.23,17.23,0,0,1-1,2.39,2,2,0,0,1-2.53.73,1.51,1.51,0,0,1-.63-2,.86.86,0,0,1,.1-.16,8.57,8.57,0,0,1,2.36-2.55C121,50.79,121.77,51.36,121.78,53.06Z" transform="translate(0 -0.04)"/><path class="cls-1" d="M172.37,53a17.36,17.36,0,0,1-1,2.4,2,2,0,0,1-2.52.78c-.93-.52-.87-1.37-.61-2.21a4.09,4.09,0,0,1,2.45-2.63C171.77,50.94,172.35,51.37,172.37,53Z" transform="translate(0 -0.04)"/><path class="cls-1" d="M39.81,20.48c-.34,1-.49,1.85-1.56,1.69-.26,0-.69-.79-.63-.85a17.65,17.65,0,0,1,1.6-1.52Z" transform="translate(0 -0.04)"/><path class="cls-1" d="M40.15,14.26c-.75.6-1.29,1-1.88,1.43a3,3,0,0,1-.65-.81,12.1,12.1,0,0,1,1.58-1.54S39.64,13.72,40.15,14.26Z" transform="translate(0 -0.04)"/></svg>