<svg id="Layer_1" data-name="Layer 1" xmlns="http://www.w3.org/2000/svg" viewBox="0 0 460.67 708.68"><path d="M689.54,372.09Q691.87,327,686,292.51t-18.29-58.95q-12.45-24.51-30.35-39.5a115.42,115.42,0,0,0-39.3-21.79,128,128,0,0,0-45.33-5.64A180.58,180.58,0,0,0,504.31,176q-46.69,15.57-81.72,44.36a288.54,288.54,0,0,0-59.34,66.35,351.07,351.07,0,0,0-38.91,82.1,485.75,485.75,0,0,0-20.43,91.64q-1.56,12.46-8.18,18.29t-13.42,4.48q-6.81-1.37-10.7-10.12t0-25.88A448.64,448.64,0,0,1,352.55,274a386.83,386.83,0,0,1,66.93-68.1A292.57,292.57,0,0,1,500,160.4a238.65,238.65,0,0,1,59.15-13.81,170.14,170.14,0,0,1,56,3.31,135.66,135.66,0,0,1,48.64,22.18q22.18,16,37.75,42.8t23.15,65.57q7.59,38.73,4.87,90.09A586.29,586.29,0,0,1,718.33,455,764.84,764.84,0,0,1,695,542a779.1,779.1,0,0,1-33.66,84.63A648.24,648.24,0,0,1,618.71,704a514.8,514.8,0,0,1-50.19,66q-26.85,29.76-56.23,49.81t-60.51,29a140.16,140.16,0,0,1-63,3.5,86,86,0,0,1-35-14,100.14,100.14,0,0,1-27.63-29q-11.68-18.09-18.68-43.39t-7.4-58a540.52,540.52,0,0,1,3.31-65.18q3.71-34,10.31-68.48T329,505.76q8.75-34,18.48-65.57t19.65-59.54q9.93-28,18.87-50.58,6.23-16,14.6-20.24t14.59,0q6.21,4.29,8.56,15.57t-3.11,26.07q-3.9,10.89-11.29,30.16T393,426.18q-9,25.31-18.88,55.45T354.88,543.7q-9.33,31.9-17.12,64.59T325.7,671.72q-6.24,42.42-3.12,72.38T336,793.72q10.31,19.63,26.46,30a93,93,0,0,0,36.38,13.42,126.93,126.93,0,0,0,75.3-11.48q36-17.31,67.32-51.36t57.4-81.13A685.74,685.74,0,0,0,644.2,592.34,811.57,811.57,0,0,0,675.14,482,729.17,729.17,0,0,0,689.54,372.09Z" transform="translate(-269.67 -145.66)"/></svg>